<svg width="116" height="23" viewBox="0 0 116 23" fill="none" xmlns="http://www.w3.org/2000/svg">
<path d="M9.54127 2.55787C9.71535 2.15643 10.2846 2.15643 10.4587 2.55787L12.5981 7.49152C12.6706 7.65859 12.8281 7.77307 13.0094 7.79034L18.3627 8.30045C18.7983 8.34196 18.9742 8.88339 18.6462 9.173L14.6152 12.7323C14.4786 12.8528 14.4185 13.038 14.4581 13.2158L15.6272 18.4647C15.7223 18.8918 15.2617 19.2264 14.8849 19.004L10.2542 16.2701C10.0974 16.1775 9.90262 16.1775 9.7458 16.2701L5.11506 19.004C4.73827 19.2264 4.2777 18.8918 4.37283 18.4647L5.54194 13.2158C5.58153 13.038 5.52135 12.8528 5.38484 12.7323L1.35377 9.173C1.02577 8.88339 1.2017 8.34196 1.63728 8.30045L6.99057 7.79034C7.17186 7.77307 7.32942 7.65859 7.40187 7.49152L9.54127 2.55787Z" fill="white"/>
<path d="M33.5413 2.55787C33.7154 2.15643 34.2846 2.15643 34.4587 2.55787L36.5981 7.49152C36.6706 7.65859 36.8281 7.77307 37.0094 7.79034L42.3627 8.30045C42.7983 8.34196 42.9742 8.88339 42.6462 9.173L38.6152 12.7323C38.4786 12.8528 38.4185 13.038 38.4581 13.2158L39.6272 18.4647C39.7223 18.8918 39.2617 19.2264 38.8849 19.004L34.2542 16.2701C34.0974 16.1775 33.9026 16.1775 33.7458 16.2701L29.1151 19.004C28.7383 19.2264 28.2777 18.8918 28.3728 18.4647L29.5419 13.2158C29.5815 13.038 29.5214 12.8528 29.3848 12.7323L25.3538 9.173C25.0258 8.88339 25.2017 8.34196 25.6373 8.30045L30.9906 7.79034C31.1719 7.77307 31.3294 7.65859 31.4019 7.49152L33.5413 2.55787Z" fill="white"/>
<path d="M57.5413 2.55787C57.7154 2.15643 58.2846 2.15643 58.4587 2.55787L60.5981 7.49152C60.6706 7.65859 60.8281 7.77307 61.0094 7.79034L66.3627 8.30045C66.7983 8.34196 66.9742 8.88339 66.6462 9.173L62.6152 12.7323C62.4786 12.8528 62.4185 13.038 62.4581 13.2158L63.6272 18.4647C63.7223 18.8918 63.2617 19.2264 62.8849 19.004L58.2542 16.2701C58.0974 16.1775 57.9026 16.1775 57.7458 16.2701L53.1151 19.004C52.7383 19.2264 52.2777 18.8918 52.3728 18.4647L53.5419 13.2158C53.5815 13.038 53.5214 12.8528 53.3848 12.7323L49.3538 9.173C49.0258 8.88339 49.2017 8.34196 49.6373 8.30045L54.9906 7.79034C55.1719 7.77307 55.3294 7.65859 55.4019 7.49152L57.5413 2.55787Z" fill="white"/>
<path d="M81.5413 2.55787C81.7154 2.15643 82.2846 2.15643 82.4587 2.55787L84.5981 7.49152C84.6706 7.65859 84.8281 7.77307 85.0094 7.79034L90.3627 8.30045C90.7983 8.34196 90.9742 8.88339 90.6462 9.173L86.6152 12.7323C86.4786 12.8528 86.4185 13.038 86.4581 13.2158L87.6272 18.4647C87.7223 18.8918 87.2617 19.2264 86.8849 19.004L82.2542 16.2701C82.0974 16.1775 81.9026 16.1775 81.7458 16.2701L77.1151 19.004C76.7383 19.2264 76.2777 18.8918 76.3728 18.4647L77.5419 13.2158C77.5815 13.038 77.5214 12.8528 77.3848 12.7323L73.3538 9.173C73.0258 8.88339 73.2017 8.34196 73.6373 8.30045L78.9906 7.79034C79.1719 7.77307 79.3294 7.65859 79.4019 7.49152L81.5413 2.55787Z" fill="white"/>
<path d="M105.541 2.55787C105.715 2.15643 106.285 2.15643 106.459 2.55787L108.598 7.49152C108.671 7.65859 108.828 7.77307 109.009 7.79034L114.363 8.30045C114.798 8.34196 114.974 8.88339 114.646 9.173L110.615 12.7323C110.479 12.8528 110.418 13.038 110.458 13.2158L111.627 18.4647C111.722 18.8918 111.262 19.2264 110.885 19.004L106.254 16.2701C106.097 16.1775 105.903 16.1775 105.746 16.2701L101.115 19.004C100.738 19.2264 100.278 18.8918 100.373 18.4647L101.542 13.2158C101.582 13.038 101.521 12.8528 101.385 12.7323L97.3538 9.173C97.0258 8.88339 97.2017 8.34196 97.6373 8.30045L102.991 7.79034C103.172 7.77307 103.329 7.65859 103.402 7.49152L105.541 2.55787Z" fill="white"/>
</svg>
