<svg width="18" height="18" viewBox="0 0 18 18" fill="none" xmlns="http://www.w3.org/2000/svg">
<path d="M11.2049 3.8925C11.4884 3.56571 11.7046 3.18613 11.841 2.77555C11.9775 2.36498 12.0314 1.9315 11.9999 1.5C11.1294 1.57027 10.3214 1.97967 9.74987 2.64C9.4762 2.95648 9.26881 3.32466 9.13998 3.72273C9.01115 4.12081 8.96351 4.54068 8.99987 4.9575C9.42448 4.96104 9.84421 4.86682 10.2266 4.68214C10.6089 4.49747 10.9437 4.22728 11.2049 3.8925V3.8925ZM13.0949 9.4725C13.0999 8.8978 13.2513 8.33386 13.5347 7.8339C13.8182 7.33394 14.2243 6.91444 14.7149 6.615C14.4053 6.16893 13.996 5.80112 13.5196 5.54076C13.0431 5.28039 12.5125 5.13461 11.9699 5.115C10.7999 4.995 9.71987 5.7975 9.09737 5.7975C8.47487 5.7975 7.59737 5.13 6.62237 5.145C5.98497 5.166 5.36389 5.35184 4.81971 5.68439C4.27553 6.01694 3.82683 6.48486 3.51737 7.0425C2.19737 9.3375 3.17987 12.75 4.49987 14.6025C5.09987 15.51 5.84987 16.5375 6.83987 16.5C7.82987 16.4625 8.15237 15.885 9.29987 15.885C10.4474 15.885 10.7999 16.5 11.7749 16.4775C12.7499 16.455 13.4399 15.5475 14.0699 14.64C14.5162 13.9811 14.8648 13.2612 15.1049 12.5025C14.5105 12.249 14.0034 11.827 13.6462 11.2885C13.2889 10.75 13.0973 10.1187 13.0949 9.4725V9.4725Z" fill="white"/>
</svg>
