<svg width="18" height="18" viewBox="0 0 18 18" fill="none" xmlns="http://www.w3.org/2000/svg">
<path fill-rule="evenodd" clip-rule="evenodd" d="M17.533 8.88793C17.533 8.27171 17.4777 7.6792 17.375 7.11038H9.19043V10.4719H13.8673C13.6659 11.5582 13.0536 12.4786 12.1333 13.0948V15.2752H14.9418C16.585 13.7623 17.533 11.5345 17.533 8.88793Z" fill="#4285F4"/>
<path fill-rule="evenodd" clip-rule="evenodd" d="M9.19021 17.3804C11.5366 17.3804 13.5037 16.6023 14.9416 15.275L12.133 13.0946C11.3549 13.616 10.3594 13.9241 9.19021 13.9241C6.9268 13.9241 5.01101 12.3954 4.32764 10.3414H1.42432V12.5929C2.85425 15.433 5.79313 17.3804 9.19021 17.3804Z" fill="#34A853"/>
<path fill-rule="evenodd" clip-rule="evenodd" d="M4.32765 10.342C4.15384 9.82054 4.05509 9.26358 4.05509 8.69081C4.05509 8.11805 4.15384 7.56109 4.32765 7.03967V4.78812H1.42432C0.835758 5.9613 0.5 7.28853 0.5 8.69081C0.5 10.0931 0.835758 11.4203 1.42432 12.5935L4.32765 10.342Z" fill="#FBBC05"/>
<path fill-rule="evenodd" clip-rule="evenodd" d="M9.19021 3.45631C10.4661 3.45631 11.6116 3.89477 12.5122 4.75589L15.0048 2.26338C13.4998 0.861091 11.5326 -3.05176e-05 9.19021 -3.05176e-05C5.79313 -3.05176e-05 2.85425 1.94737 1.42432 4.78749L4.32764 7.03905C5.01101 4.98499 6.9268 3.45631 9.19021 3.45631Z" fill="#EA4335"/>
</svg>
